{
    "asset" : {
        "generator" : "Khronos glTF Blender I/O v1.6.16",
        "version" : "2.0"
    },
    "scene" : 0,
    "scenes" : [
        {
            "name" : "Scene",
            "nodes" : [
                0
            ]
        }
    ],
    "nodes" : [
        {
            "mesh" : 0,
            "name" : "nebra-sky-disk"
        }
    ],
    "materials" : [
        {
            "doubleSided" : true,
            "name" : "Material.001",
            "pbrMetallicRoughness" : {
                "metallicFactor" : 0,
                "roughnessFactor" : 0.5
            }
        }
    ],
    "meshes" : [
        {
            "name" : "nebra-sky-disk",
            "primitives" : [
                {
                    "attributes" : {
                        "POSITION" : 0,
                        "NORMAL" : 1
                    },
                    "indices" : 2,
                    "material" : 0
                }
            ]
        }
    ],
    "accessors" : [
        {
            "bufferView" : 0,
            "componentType" : 5126,
            "count" : 68215,
            "max" : [
                55.3849983215332,
                5.019999980926514,
                51.7599983215332
            ],
            "min" : [
                -70.62999725341797,
                0,
                -73.75
            ],
            "type" : "VEC3"
        },
        {
            "bufferView" : 1,
            "componentType" : 5126,
            "count" : 68215,
            "type" : "VEC3"
        },
        {
            "bufferView" : 2,
            "componentType" : 5125,
            "count" : 105588,
            "type" : "SCALAR"
        }
    ],
    "bufferViews" : [
        {
            "buffer" : 0,
            "byteLength" : 818580,
            "byteOffset" : 0
        },
        {
            "buffer" : 0,
            "byteLength" : 818580,
            "byteOffset" : 818580
        },
        {
            "buffer" : 0,
            "byteLength" : 422352,
            "byteOffset" : 1637160
        }
    ],
    "buffers" : [
        {
            "byteLength" : 2059512,
            "uri" : "data:application/octet-stream;base64,"
        }
    ]
}
